<svg width="1320" height="1320" viewBox="0 0 1320 1320" fill="none" xmlns="http://www.w3.org/2000/svg">
<mask id="mask0_68_89" style="mask-type:alpha" maskUnits="userSpaceOnUse" x="185" y="247" width="1088" height="983">
<path fill-rule="evenodd" clip-rule="evenodd" d="M258 247H774C814.317 247 847 279.683 847 320V436C847 476.317 814.317 509 774 509H258C217.683 509 185 476.317 185 436V320C185 279.683 217.683 247 258 247ZM258 811H578C618.317 811 651 843.683 651 884V1000C651 1040.32 618.317 1073 578 1073H258C217.683 1073 185 1040.32 185 1000V884C185 843.683 217.683 811 258 811ZM1062 529H546C505.683 529 473 561.683 473 602V718C473 758.317 505.683 791 546 791H671.129L628.359 705.254C623.487 695.487 632.489 684.564 643.007 687.48L1016.43 791H1062C1102.32 791 1135 758.317 1135 718V602C1135 561.683 1102.32 529 1062 529ZM691.975 832.791L811.791 1073H744C703.683 1073 671 1040.32 671 1000V884C671 864.049 679.003 845.968 691.975 832.791ZM1062 247H945C904.683 247 872 279.683 872 320V436C872 476.317 904.683 509 945 509H1062C1102.32 509 1135 476.317 1135 436V320C1135 279.683 1102.32 247 1062 247ZM258 529H375C415.317 529 448 561.683 448 602V718C448 758.317 415.317 791 375 791H258C217.683 791 185 758.317 185 718V602C185 561.683 217.683 529 258 529Z" fill="white"/>
<mask id="mask1_68_89" style="mask-type:alpha" maskUnits="userSpaceOnUse" x="679" y="746" width="594" height="484">
<path d="M679 746L1135.95 1026.99L922.666 1230L679 746Z" fill="#D9D9D9"/>
<path d="M734.406 747.785L1272.38 898.403L1156.8 1007.94L734.406 747.785Z" fill="#D9D9D9"/>
<path d="M1056.12 1140.7L1144.88 1056.76V1221.67L1056.12 1140.7Z" fill="#D9D9D9"/>
</mask>
<g mask="url(#mask1_68_89)">
<path d="M1350.42 666.822H592.617V1341.92H1350.42V666.822Z" fill="white"/>
</g>
</mask>
<g mask="url(#mask0_68_89)">
<rect x="-1291" y="660" width="2759.13" height="2759.13" transform="rotate(-45 -1291 660)" fill="url(#paint0_linear_68_89)"/>
<rect x="185" y="247" width="662" height="262" rx="73" fill="#94E8B4"/>
<rect x="185" y="811" width="466" height="262" rx="73" fill="#94E8B4"/>
<rect x="473" y="529" width="662" height="262" rx="73" fill="#94E8B4"/>
<rect x="671" y="811" width="464" height="262" rx="73" fill="#218380"/>
<rect x="872" y="247" width="263" height="262" rx="73" fill="#218380"/>
<rect x="185" y="529" width="263" height="262" rx="73" fill="#218380"/>
<path d="M1019.8 1147.44L1185.12 1001.34V1293.53L1019.8 1147.44Z" fill="white"/>
<path d="M628.358 705.24C623.49 695.48 632.485 684.566 642.995 687.48L1323.76 876.203C1333.18 878.812 1336.17 890.706 1329.09 897.454L931.634 1276.72C925.507 1282.57 915.457 1280.82 911.67 1273.23L628.358 705.24Z" fill="white"/>
<mask id="mask2_68_89" style="mask-type:alpha" maskUnits="userSpaceOnUse" x="679" y="748" width="594" height="484">
<mask id="mask3_68_89" style="mask-type:alpha" maskUnits="userSpaceOnUse" x="679" y="748" width="594" height="484">
<path d="M679 748L1135.95 1028.99L922.666 1232L679 748Z" fill="#D9D9D9"/>
<path d="M734.406 749.785L1272.38 900.403L1156.8 1009.94L734.406 749.785Z" fill="#D9D9D9"/>
<path d="M1056.12 1142.7L1144.88 1058.76V1223.67L1056.12 1142.7Z" fill="#D9D9D9"/>
</mask>
<g mask="url(#mask3_68_89)">
<path d="M1350.42 668.822H592.617V1343.92H1350.42V668.822Z" fill="white"/>
</g>
</mask>
<g mask="url(#mask2_68_89)">
<rect x="-1103" y="831" width="2940.15" height="2940.15" transform="rotate(-45 -1103 831)" fill="url(#paint1_linear_68_89)"/>
</g>
</g>
<defs>
<linearGradient id="paint0_linear_68_89" x1="88.5654" y1="660" x2="88.5654" y2="3419.13" gradientUnits="userSpaceOnUse">
<stop stop-color="#94E8B4"/>
<stop offset="1" stop-color="#218380"/>
</linearGradient>
<linearGradient id="paint1_linear_68_89" x1="367.075" y1="831" x2="367.075" y2="3771.15" gradientUnits="userSpaceOnUse">
<stop stop-color="#94E8B4"/>
<stop offset="1" stop-color="#218380"/>
</linearGradient>
</defs>
</svg>
