<svg width="1916" height="1920" viewBox="0 0 1916 1920" fill="none" xmlns="http://www.w3.org/2000/svg">
<rect width="1916" height="1920" fill="white"/>
<mask id="mask0_48_1588" style="mask-type:alpha" maskUnits="userSpaceOnUse" x="485" y="547" width="1088" height="983">
<path fill-rule="evenodd" clip-rule="evenodd" d="M558 547H1074C1114.32 547 1147 579.683 1147 620V736C1147 776.317 1114.32 809 1074 809H558C517.683 809 485 776.317 485 736V620C485 579.683 517.683 547 558 547ZM558 1111H878C918.317 1111 951 1143.68 951 1184V1300C951 1340.32 918.317 1373 878 1373H558C517.683 1373 485 1340.32 485 1300V1184C485 1143.68 517.683 1111 558 1111ZM1362 829H846C805.683 829 773 861.683 773 902V1018C773 1058.32 805.683 1091 846 1091H971.129L928.359 1005.25C923.487 995.487 932.489 984.564 943.007 987.48L1316.43 1091H1362C1402.32 1091 1435 1058.32 1435 1018V902C1435 861.683 1402.32 829 1362 829ZM991.975 1132.79L1111.79 1373H1044C1003.68 1373 971 1340.32 971 1300V1184C971 1164.05 979.003 1145.97 991.975 1132.79ZM1362 547H1245C1204.68 547 1172 579.683 1172 620V736C1172 776.317 1204.68 809 1245 809H1362C1402.32 809 1435 776.317 1435 736V620C1435 579.683 1402.32 547 1362 547ZM558 829H675C715.317 829 748 861.683 748 902V1018C748 1058.32 715.317 1091 675 1091H558C517.683 1091 485 1058.32 485 1018V902C485 861.683 517.683 829 558 829Z" fill="white"/>
<mask id="mask1_48_1588" style="mask-type:alpha" maskUnits="userSpaceOnUse" x="979" y="1046" width="594" height="484">
<path d="M979 1046L1435.95 1326.99L1222.67 1530L979 1046Z" fill="#D9D9D9"/>
<path d="M1034.41 1047.79L1572.38 1198.4L1456.8 1307.94L1034.41 1047.79Z" fill="#D9D9D9"/>
<path d="M1356.12 1440.7L1444.88 1356.76V1521.67L1356.12 1440.7Z" fill="#D9D9D9"/>
</mask>
<g mask="url(#mask1_48_1588)">
<path d="M1650.42 966.821H892.617V1641.92H1650.42V966.821Z" fill="white"/>
</g>
</mask>
<g mask="url(#mask0_48_1588)">
<rect x="-991" y="960" width="2759.13" height="2759.13" transform="rotate(-45 -991 960)" fill="url(#paint0_linear_48_1588)"/>
<rect x="485" y="547" width="662" height="262" rx="73" fill="#94E8B4"/>
<rect x="485" y="1111" width="466" height="262" rx="73" fill="#94E8B4"/>
<rect x="773" y="829" width="662" height="262" rx="73" fill="#94E8B4"/>
<rect x="971" y="1111" width="464" height="262" rx="73" fill="#218380"/>
<rect x="1172" y="547" width="263" height="262" rx="73" fill="#218380"/>
<rect x="485" y="829" width="263" height="262" rx="73" fill="#218380"/>
<path d="M1319.8 1447.44L1485.12 1301.34V1593.53L1319.8 1447.44Z" fill="white"/>
<path d="M928.358 1005.24C923.49 995.48 932.485 984.566 942.995 987.48L1623.76 1176.2C1633.18 1178.81 1636.17 1190.71 1629.09 1197.45L1231.63 1576.72C1225.51 1582.57 1215.46 1580.82 1211.67 1573.23L928.358 1005.24Z" fill="white"/>
<mask id="mask2_48_1588" style="mask-type:alpha" maskUnits="userSpaceOnUse" x="979" y="1048" width="594" height="484">
<mask id="mask3_48_1588" style="mask-type:alpha" maskUnits="userSpaceOnUse" x="979" y="1048" width="594" height="484">
<path d="M979 1048L1435.95 1328.99L1222.67 1532L979 1048Z" fill="#D9D9D9"/>
<path d="M1034.41 1049.79L1572.38 1200.4L1456.8 1309.94L1034.41 1049.79Z" fill="#D9D9D9"/>
<path d="M1356.12 1442.7L1444.88 1358.76V1523.67L1356.12 1442.7Z" fill="#D9D9D9"/>
</mask>
<g mask="url(#mask3_48_1588)">
<path d="M1650.42 968.821H892.617V1643.92H1650.42V968.821Z" fill="white"/>
</g>
</mask>
<g mask="url(#mask2_48_1588)">
<rect x="-803" y="1131" width="2940.15" height="2940.15" transform="rotate(-45 -803 1131)" fill="url(#paint1_linear_48_1588)"/>
</g>
</g>
<defs>
<linearGradient id="paint0_linear_48_1588" x1="388.565" y1="960" x2="388.565" y2="3719.13" gradientUnits="userSpaceOnUse">
<stop stop-color="#94E8B4"/>
<stop offset="1" stop-color="#218380"/>
</linearGradient>
<linearGradient id="paint1_linear_48_1588" x1="667.075" y1="1131" x2="667.075" y2="4071.15" gradientUnits="userSpaceOnUse">
<stop stop-color="#94E8B4"/>
<stop offset="1" stop-color="#218380"/>
</linearGradient>
</defs>
</svg>
